<svg aria-hidden="true" style="position: absolute; width: 0; height: 0; overflow: hidden;" version="1.1" xmlns="http://www.w3.org/2000/svg" xmlns:xlink="http://www.w3.org/1999/xlink">
<defs>
<symbol id="icon-discord" viewBox="0 0 32 32">
<path d="M25.257 7.847c-1.726-0.759-3.572-1.31-5.502-1.624-0.237 0.403-0.514 0.944-0.705 1.375-2.051-0.29-4.084-0.29-6.097 0-0.191-0.431-0.474-0.972-0.713-1.375-1.932 0.314-3.78 0.867-5.506 1.628-3.482 4.943-4.426 9.763-3.954 14.515 2.309 1.62 4.547 2.604 6.747 3.248 0.543-0.702 1.028-1.449 1.445-2.236-0.795-0.284-1.556-0.634-2.276-1.041 0.191-0.133 0.378-0.272 0.558-0.415 4.388 1.928 9.155 1.928 13.491 0 0.182 0.143 0.369 0.282 0.558 0.415-0.721 0.409-1.485 0.759-2.28 1.043 0.417 0.785 0.9 1.534 1.445 2.236 2.202-0.644 4.442-1.628 6.752-3.25 0.554-5.509-0.946-10.285-3.964-14.519zM11.572 19.444c-1.317 0-2.397-1.155-2.397-2.562s1.057-2.564 2.397-2.564 2.42 1.155 2.397 2.564c0.002 1.407-1.057 2.562-2.397 2.562zM20.431 19.444c-1.317 0-2.397-1.155-2.397-2.562s1.057-2.564 2.397-2.564 2.42 1.155 2.397 2.564c0 1.407-1.057 2.562-2.397 2.562z"></path>
</symbol>
<symbol id="icon-twitter" viewBox="0 0 32 32">
<path d="M19.044 13.543l11.913-13.543h-2.823l-10.344 11.759-8.262-11.759h-9.529l12.493 17.782-12.493 14.202h2.823l10.923-12.418 8.725 12.418h9.529l-12.956-18.441zM15.178 17.938l-11.337-15.86h4.336l19.959 27.921h-4.336l-8.622-12.061z"></path>
</symbol>
<symbol id="icon-ship" viewBox="0 0 32 32">
<path d="M16.14 0.001c-8.947-0.074-16.213 7.192-16.139 16.139 0.075 8.688 7.173 15.787 15.859 15.859 8.947 0.077 16.216-7.192 16.139-16.139-0.072-8.685-7.171-15.784-15.859-15.859zM11.356 7.964c1.024 1.301 1.637 2.947 1.637 4.733 0 1.547-0.459 2.987-1.248 4.189h-5.547l5.158-8.922zM28.268 17.711v1.152c0 0.075-0.040 0.139-0.109 0.168-0.376 0.16-1.616 0.736-2.133 1.453-1.331 1.853-2.347 4.765-4.619 4.765h-9.48c-3.357 0-6.165-2.664-6.163-6.213 0-0.088 0.075-0.16 0.163-0.16h4.493c0.155 0 0.277 0.125 0.277 0.277v0.867c0 0.461 0.373 0.835 0.835 0.835h3.408v-1.984h-2.328c1.339-1.696 2.136-3.837 2.136-6.168 0-2.6-0.997-4.971-2.629-6.744 0.987 0.115 1.931 0.312 2.821 0.573v-0.552c0-0.573 0.464-1.037 1.037-1.037s1.037 0.464 1.037 1.037v1.331c3.181 1.485 5.264 3.949 5.264 6.736 0 1.635-0.715 3.157-1.949 4.437-0.237 0.245-0.565 0.384-0.909 0.384h-2.405v1.981h3.019c0.651 0 1.819-1.235 2.373-1.979 0 0 0.024-0.037 0.088-0.056s5.544-1.277 5.544-1.277c0.115-0.032 0.229 0.056 0.229 0.173v0.002z"></path>
</symbol>
<symbol id="icon-cross" viewBox="0 0 32 32">
<path d="M23.778 9.636l-14.142 14.142-1.414-1.414 14.142-14.142 1.414 1.414z"></path>
<path d="M9.636 8.222l14.142 14.142-1.414 1.414-14.142-14.142 1.414-1.414z"></path>
</symbol>
<symbol id="icon-vector" viewBox="0 0 32 32">
<path d="M3.946 0h28.054v28.054h-8.632v-13.318l-17.264 17.264-6.104-6.104 17.264-17.264h-13.318v-8.632z"></path>
</symbol>
</defs>
</svg>
